<svg width="35" height="35" viewBox="0 0 35 35" fill="none" xmlns="http://www.w3.org/2000/svg">
<path d="M0.936623 1.4922C0.936623 0.865534 1.44464 0.357521 2.0713 0.357521H33.4401C34.0668 0.357521 34.5748 0.865535 34.5748 1.4922V32.861C34.5748 33.4877 34.0668 33.9957 33.4401 33.9957H2.0713C1.44464 33.9957 0.936623 33.4877 0.936623 32.861V1.4922Z" fill="white" stroke="#D3D3D3" stroke-width="0.252151" stroke-miterlimit="16"/>
<rect width="19.3659" height="19.3659" transform="translate(8.07227 7.49341)" fill="white"/>
<g clip-path="url(#clip0)">
<path d="M27.4382 17.1766C27.4382 11.8283 23.1035 7.49365 17.7552 7.49365C12.4069 7.49365 8.07227 11.8283 8.07227 17.1766C8.07227 22.0105 11.6126 26.0161 16.2423 26.7423V19.9756H13.7837V17.1766H16.2423V15.0433C16.2423 12.6169 17.6871 11.2761 19.8998 11.2761C20.9589 11.2761 22.0672 11.4652 22.0672 11.4652V13.8481H20.8454C19.6426 13.8481 19.2682 14.5951 19.2682 15.361V17.1766H21.9537L21.5244 19.9756H19.2682V26.7423C23.8978 26.0161 27.4382 22.0105 27.4382 17.1766Z" fill="#1877F2"/>
<path d="M21.5248 19.9744L21.9541 17.1755H19.2687V15.3599C19.2687 14.594 19.6431 13.8469 20.8459 13.8469H22.0676V11.464C22.0676 11.464 20.9594 11.2749 19.9003 11.2749C17.6876 11.2749 16.2427 12.6158 16.2427 15.0422V17.1755H13.7842V19.9744H16.2427V26.7411C16.7363 26.8187 17.2413 26.8584 17.7557 26.8584C18.2701 26.8584 18.775 26.8187 19.2687 26.7411V19.9744H21.5248Z" fill="white"/>
</g>
<defs>
<clipPath id="clip0">
<rect width="19.3659" height="19.3659" fill="white" transform="translate(8.07227 7.49365)"/>
</clipPath>
</defs>
</svg>
