<svg width="35" height="35" viewBox="0 0 35 35" fill="none" xmlns="http://www.w3.org/2000/svg">
<path d="M0.679787 1.4922C0.679787 0.865534 1.1878 0.357521 1.81447 0.357521H33.1833C33.81 0.357521 34.318 0.865535 34.318 1.4922V32.861C34.318 33.4877 33.8099 33.9957 33.1833 33.9957H1.81447C1.1878 33.9957 0.679787 33.4877 0.679787 32.861V1.4922Z" fill="white" stroke="#D3D3D3" stroke-width="0.252151" stroke-miterlimit="16"/>
<rect width="19.3659" height="19.3659" transform="translate(7.81641 7.49341)" fill="white"/>
<path fill-rule="evenodd" clip-rule="evenodd" d="M17.9041 7.9502C15.5081 7.9502 15.2074 7.96067 14.2664 8.0035C13.3272 8.04651 12.6861 8.1952 12.1251 8.41337C11.5449 8.63871 11.0527 8.94013 10.5623 9.43069C10.0715 9.92107 9.77012 10.4133 9.54404 10.9933C9.32532 11.5545 9.17645 12.1958 9.13417 13.1346C9.09208 14.0757 9.08105 14.3765 9.08105 16.7725C9.08105 19.1685 9.09171 19.4683 9.13436 20.4094C9.17755 21.3486 9.32624 21.9897 9.54423 22.5506C9.76975 23.1309 10.0712 23.6231 10.5617 24.1134C11.0519 24.6042 11.5441 24.9064 12.124 25.1317C12.6853 25.3499 13.3266 25.4986 14.2656 25.5416C15.2067 25.5844 15.5072 25.5949 17.903 25.5949C20.2992 25.5949 20.599 25.5844 21.54 25.5416C22.4792 25.4986 23.1211 25.3499 23.6824 25.1317C24.2625 24.9064 24.7539 24.6042 25.2441 24.1134C25.7349 23.6231 26.0363 23.1309 26.2624 22.5508C26.4792 21.9897 26.6281 21.3484 26.6722 20.4095C26.7145 19.4685 26.7255 19.1685 26.7255 16.7725C26.7255 14.3765 26.7145 14.0758 26.6722 13.1348C26.6281 12.1956 26.4792 11.5545 26.2624 10.9935C26.0363 10.4133 25.7349 9.92107 25.2441 9.43069C24.7534 8.93995 24.2626 8.63852 23.6818 8.41337C23.1194 8.1952 22.478 8.04651 21.5387 8.0035C20.5977 7.96067 20.2981 7.9502 17.9014 7.9502H17.9041ZM17.609 9.54016H17.6092L17.9033 9.54025C20.2588 9.54025 20.538 9.54871 21.4682 9.59098C22.3284 9.63031 22.7953 9.77404 23.1062 9.8948C23.518 10.0547 23.8115 10.2459 24.1201 10.5546C24.4289 10.8634 24.62 11.1575 24.7803 11.5692C24.901 11.8798 25.045 12.3467 25.0841 13.2069C25.1264 14.1369 25.1356 14.4162 25.1356 16.7707C25.1356 19.1252 25.1264 19.4045 25.0841 20.3346C25.0448 21.1947 24.901 21.6616 24.7803 21.9722C24.6204 22.3839 24.4289 22.6771 24.1201 22.9857C23.8113 23.2945 23.5181 23.4856 23.1062 23.6455C22.7956 23.7668 22.3284 23.9102 21.4682 23.9495C20.5382 23.9918 20.2588 24.001 17.9033 24.001C15.5475 24.001 15.2683 23.9918 14.3383 23.9495C13.4781 23.9098 13.0113 23.7661 12.7001 23.6453C12.2884 23.4854 11.9943 23.2943 11.6856 22.9855C11.3768 22.6767 11.1856 22.3834 11.0253 21.9715C10.9046 21.6609 10.7607 21.194 10.7215 20.3338C10.6793 19.4038 10.6708 19.1244 10.6708 16.7685C10.6708 14.4126 10.6793 14.1347 10.7215 13.2046C10.7609 12.3445 10.9046 11.8776 11.0253 11.5666C11.1853 11.1549 11.3768 10.8608 11.6856 10.5521C11.9943 10.2433 12.2884 10.0521 12.7001 9.89186C13.0111 9.77055 13.4781 9.62719 14.3383 9.58767C15.1522 9.55091 15.4676 9.53988 17.1118 9.53805V9.54025C17.2654 9.54001 17.4306 9.54008 17.6089 9.54016H17.6089H17.609ZM21.554 12.0626C21.554 11.478 22.0282 11.0043 22.6127 11.0043V11.004C23.1972 11.004 23.6714 11.4782 23.6714 12.0626C23.6714 12.6471 23.1972 13.1213 22.6127 13.1213C22.0282 13.1213 21.554 12.6471 21.554 12.0626ZM17.9044 12.2416C15.4024 12.2417 13.3739 14.2703 13.3739 16.7723C13.3739 19.2743 15.4025 21.302 17.9046 21.302C20.4066 21.302 22.4345 19.2743 22.4345 16.7723C22.4345 14.2702 20.4065 12.2416 17.9044 12.2416ZM20.8437 16.7715C20.8437 15.1472 19.527 13.8307 17.903 13.8307C16.2787 13.8307 14.9622 15.1472 14.9622 16.7715C14.9622 18.3955 16.2787 19.7123 17.903 19.7123C19.527 19.7123 20.8437 18.3955 20.8437 16.7715Z" fill="#333333"/>
</svg>
