<svg width="35" height="35" viewBox="0 0 35 35" fill="none" xmlns="http://www.w3.org/2000/svg">
<path d="M0.423927 1.49367C0.423927 0.866999 0.931941 0.358986 1.55861 0.358986H32.9274C33.5541 0.358986 34.0621 0.867 34.0621 1.49367V32.8625C34.0621 33.4891 33.5541 33.9972 32.9274 33.9972H1.55861C0.93194 33.9972 0.423927 33.4891 0.423927 32.8625V1.49367Z" fill="white" stroke="#D3D3D3" stroke-width="0.252151" stroke-miterlimit="16"/>
<path d="M7.55957 17.1776C7.55957 11.8298 11.8948 7.49463 17.2425 7.49463C22.5903 7.49463 26.9255 11.8298 26.9255 17.1776C26.9255 22.5253 22.5903 26.8605 17.2425 26.8605C11.8948 26.8605 7.55957 22.5253 7.55957 17.1776Z" fill="#55ACEE"/>
<path d="M16.9528 15.3649L16.9732 15.6999L16.6345 15.6589C15.4018 15.5016 14.3249 14.9683 13.4105 14.0725L12.9635 13.6281L12.8484 13.9563C12.6046 14.6879 12.7603 15.4606 13.2683 15.9803C13.5392 16.2674 13.4783 16.3085 13.0109 16.1375C12.8484 16.0828 12.7062 16.0418 12.6926 16.0623C12.6452 16.1102 12.8077 16.7324 12.9364 16.9786C13.1125 17.3205 13.4715 17.6555 13.8643 17.8538L14.1962 18.0111L13.8034 18.0179C13.4241 18.0179 13.4105 18.0248 13.4512 18.1683C13.5866 18.6128 14.1217 19.0846 14.7177 19.2897L15.1377 19.4333L14.7719 19.6521C14.2301 19.9667 13.5934 20.1445 12.9568 20.1581C12.652 20.165 12.4014 20.1923 12.4014 20.2128C12.4014 20.2812 13.2277 20.6641 13.7086 20.8146C15.1512 21.259 16.8648 21.0676 18.1517 20.3086C19.066 19.7684 19.9804 18.6949 20.4071 17.6555C20.6374 17.1017 20.8676 16.0897 20.8676 15.6042C20.8676 15.2896 20.888 15.2486 21.2673 14.8725C21.4908 14.6537 21.7007 14.4144 21.7414 14.346C21.8091 14.2161 21.8023 14.2161 21.4569 14.3323C20.8812 14.5375 20.7999 14.5101 21.0844 14.2024C21.2943 13.9836 21.5449 13.587 21.5449 13.4708C21.5449 13.4503 21.4434 13.4845 21.3282 13.546C21.2063 13.6144 20.9354 13.7169 20.7322 13.7785L20.3664 13.8947L20.0346 13.6691C19.8517 13.546 19.5943 13.4092 19.4589 13.3682C19.1134 13.2725 18.5851 13.2862 18.2736 13.3956C17.4269 13.7033 16.8919 14.4965 16.9528 15.3649Z" fill="white"/>
</svg>